<svg version="1.1" xmlns="http://www.w3.org/2000/svg" xmlns:xlink="http://www.w3.org/1999/xlink" width="600.6006" height="475.97598" viewBox="0,0,600.6006,475.97598"><g transform="translate(64.31013,31.84325)"><g data-paper-data="{&quot;isPaintingLayer&quot;:true}" fill-rule="nonzero" stroke-linejoin="miter" stroke-miterlimit="10" stroke-dasharray="" stroke-dashoffset="0" style="mix-blend-mode: normal"><path d="M-64.31013,444.13273v-475.97598h600.6006v475.97598z" fill="#ffffff" stroke="none" stroke-width="0" stroke-linecap="butt"/><text transform="translate(65.13515,188.77175) scale(0.76028,0.76028)" font-size="40" xml:space="preserve" fill="#000000" fill-rule="nonzero" stroke="none" stroke-width="1" stroke-linecap="butt" stroke-linejoin="miter" stroke-miterlimit="10" stroke-dasharray="" stroke-dashoffset="0" font-family="Pixel" font-weight="normal" text-anchor="start" style="mix-blend-mode: normal"><tspan x="0" dy="0">Click anywhere to play</tspan></text><text transform="translate(52.22068,120.58256) scale(1.18324,1.18324)" font-size="40" xml:space="preserve" fill="#000000" fill-rule="nonzero" stroke="none" stroke-width="1" stroke-linecap="butt" stroke-linejoin="miter" stroke-miterlimit="10" stroke-dasharray="" stroke-dashoffset="0" font-family="Pixel" font-weight="normal" text-anchor="start" style="mix-blend-mode: normal"><tspan x="0" dy="0">SNOW RIDER 2D</tspan></text><path d="M207.63387,344.6635v-64.56456h15.01502v64.56456z" fill="#986e00" stroke="none" stroke-width="0" stroke-linecap="butt"/><path d="M238.53919,306.74185l-48.04805,-1.5015l24.02402,-54.05405z" fill="#05b200" stroke="#000000" stroke-width="0.5" stroke-linecap="round"/><path d="M252.19472,345.28971c0,0 -9.29737,-9.15265 -9.14466,-13.78106c0.13744,-4.16572 10.01995,-12.7478 10.01995,-12.7478c0,0 8.58519,-8.83966 15.79924,-9.37509c8.34493,-0.61936 31.37352,5.87391 31.37352,5.87391c0,0 7.00235,18.78359 7.00235,24.08372c0,4.61464 -7.00235,5.94631 -7.00235,5.94631z" fill="#aeaeae" stroke="#000000" stroke-width="0.5" stroke-linecap="butt"/></g></g></svg>